<svg width="74" height="70" viewBox="0 0 74 70" fill="none" xmlns="http://www.w3.org/2000/svg">
<path d="M60.1771 53.5107H55.9266C54.8486 53.5107 53.9717 54.3853 53.9717 55.4604V57.6155C53.9717 58.6905 54.8486 59.5651 55.9266 59.5651H60.1771C61.2551 59.5651 62.1321 58.6905 62.1321 57.6155V55.4604C62.1321 54.3853 61.2551 53.5107 60.1771 53.5107ZM60.2402 57.6154C60.2402 57.65 60.2118 57.6783 60.1771 57.6783H55.9266C55.892 57.6783 55.8636 57.65 55.8636 57.6154V55.4604C55.8636 55.4258 55.892 55.3975 55.9266 55.3975H60.1771C60.2118 55.3975 60.2402 55.4258 60.2402 55.4604V57.6154Z" fill="black"/>
<path d="M68.536 61.8458H66.307C66.3086 61.813 66.312 61.7804 66.312 61.7472V39.8675C66.312 37.0494 64.013 34.7566 61.187 34.7566H55.8644V32.2503C56.4849 31.9232 56.9092 31.2736 56.9092 30.5264V28.3712C56.9092 28.0028 56.8042 27.6592 56.6255 27.365C56.8043 27.0708 56.9092 26.7271 56.9092 26.3587V24.2036C56.9092 23.8352 56.8042 23.4915 56.6255 23.1973C56.8043 22.9031 56.9092 22.5595 56.9092 22.1911V20.0361C56.9092 19.2888 56.4849 18.6393 55.8644 18.3121V15.7169C58.2398 15.2729 60.0435 13.1906 60.0435 10.6948V5.48521C60.0435 4.39053 59.1504 3.5 58.0527 3.5H49.9414C48.7841 3.5 47.7438 4.14136 47.2265 5.17339L46.292 7.0371C46.0971 7.42601 45.7052 7.66751 45.2693 7.66751H43.3924C42.8699 7.66751 42.4464 8.08976 42.4464 8.61087C42.4464 9.13198 42.8699 9.55423 43.3924 9.55423H45.2693C46.4264 9.55423 47.4667 8.913 47.9842 7.88096L48.9188 6.01713C49.1136 5.62822 49.5054 5.38672 49.9414 5.38672H58.0527C58.1074 5.38672 58.1516 5.43099 58.1516 5.48521V10.6947C58.1516 12.4725 56.7013 13.9188 54.9185 13.9188H15.2181C13.4353 13.9188 11.9849 12.4725 11.9849 10.6947V5.48521C11.9849 5.43087 12.0293 5.38672 12.0838 5.38672H20.1951C20.6312 5.38672 21.023 5.62834 21.218 6.01713L22.1524 7.88096C22.67 8.913 23.7103 9.55423 24.8674 9.55423H39.6086C40.1311 9.55423 40.5545 9.13198 40.5545 8.61087C40.5545 8.08976 40.1311 7.66751 39.6086 7.66751H24.8675C24.4315 7.66751 24.0395 7.42601 23.8446 7.03722L22.9103 5.17339C22.3927 4.14123 21.3522 3.5 20.1951 3.5H12.0838C10.9861 3.5 10.093 4.39053 10.093 5.48521V10.6947C10.093 13.4586 12.3048 15.7155 15.0557 15.8014V18.312C14.4352 18.6392 14.0109 19.2887 14.0109 20.0361V22.1911C14.0109 22.5595 14.1158 22.9031 14.2946 23.1973C14.1157 23.4915 14.0109 23.8352 14.0109 24.2036V26.3587C14.0109 26.7271 14.1158 27.0708 14.2946 27.365C14.1157 27.6592 14.0109 28.0028 14.0109 28.3712V30.5264C14.0109 31.2738 14.4352 31.9233 15.0557 32.2505V36.8405H12.048C10.97 36.8405 10.093 37.715 10.093 38.7901V40.9451C10.093 42.0201 10.97 42.8947 12.048 42.8947H15.3168V45.4011C14.6964 45.7283 14.2721 46.3778 14.2721 47.1251V49.2802C14.2721 49.6486 14.3769 49.9923 14.5558 50.2865C14.3769 50.5807 14.2721 50.9243 14.2721 51.2927V53.4477C14.2721 53.8162 14.3769 54.1598 14.5558 54.454C14.3769 54.7482 14.2721 55.0918 14.2721 55.4602V57.6154C14.2721 58.3626 14.6964 59.0122 15.3168 59.3393V61.8458H7.86903C6.79102 61.8458 5.91406 62.7203 5.91406 63.7954V65.9504C5.91406 67.0255 6.79102 67.9 7.86903 67.9H11.9153C12.4377 67.9 12.8613 67.4778 12.8613 66.9566C12.8613 66.4355 12.4377 66.0133 11.9153 66.0133H7.86903C7.83434 66.0133 7.80596 65.985 7.80596 65.9504V63.7954C7.80596 63.7608 7.83434 63.7325 7.86903 63.7325H68.536C68.5707 63.7325 68.5991 63.7608 68.5991 63.7954V65.9504C68.5991 65.985 68.5707 66.0133 68.536 66.0133H15.6991C15.1766 66.0133 14.7532 66.4355 14.7532 66.9566C14.7532 67.4778 15.1766 67.9 15.6991 67.9H68.536C69.614 67.9 70.491 67.0255 70.491 65.9504V63.7954C70.491 62.7203 69.614 61.8458 68.536 61.8458ZM64.2786 38.9242H35.111C35.5165 37.6052 36.7489 36.6434 38.2025 36.6434H61.187C62.6407 36.6434 63.8731 37.6052 64.2786 38.9242ZM46.7035 44.9785C48.4074 44.9785 49.7936 46.3608 49.7936 48.0602V54.5966C49.7936 56.2959 48.4074 57.6783 46.7035 57.6783H39.1485V44.9785H46.7035ZM37.2566 57.6781H34.9695V44.9785H37.2566V57.6781ZM16.2271 57.6781C16.1924 57.6781 16.164 57.6498 16.164 57.6153V55.4602C16.164 55.4257 16.1924 55.3974 16.2271 55.3974H24.6565C24.6912 55.3974 24.7196 55.4257 24.7196 55.4602V57.6154C24.7196 57.65 24.6912 57.6783 24.6565 57.6783L16.2271 57.6781ZM16.164 53.4477V51.2927C16.164 51.2581 16.1924 51.2298 16.2271 51.2298H24.6565C24.6912 51.2298 24.7196 51.2581 24.7196 51.2927V53.4477C24.7196 53.4823 24.6912 53.5106 24.6565 53.5106H16.2271C16.1923 53.5106 16.164 53.4823 16.164 53.4477ZM16.164 49.2802V47.1251C16.164 47.0905 16.1924 47.0622 16.2271 47.0622H24.6565C24.6912 47.0622 24.7196 47.0905 24.7196 47.1251V49.2802C24.7196 49.3148 24.6912 49.3431 24.6565 49.3431H16.2271C16.1923 49.3431 16.164 49.3148 16.164 49.2802ZM25.5666 59.3393C26.1871 59.0122 26.6113 58.3626 26.6113 57.6154V55.4602C26.6113 55.0918 26.5065 54.7482 26.3277 54.454C26.5065 54.1598 26.6113 53.8162 26.6113 53.4477V51.2927C26.6113 50.9243 26.5065 50.5807 26.3277 50.2865C26.5065 49.9923 26.6113 49.6486 26.6113 49.2802V47.1251C26.6113 46.3778 26.1871 45.7283 25.5666 45.4011V42.8947H28.8355C29.9135 42.8947 30.7904 42.0201 30.7904 40.9451V38.7899C30.7904 37.7149 29.9135 36.8403 28.8355 36.8403H25.3056V32.2502C25.926 31.923 26.3503 31.2735 26.3503 30.5262V28.3711C26.3503 28.0027 26.2455 27.6591 26.0666 27.3649C26.2455 27.0707 26.3503 26.727 26.3503 26.3586V24.2036C26.3503 23.8352 26.2455 23.4915 26.0666 23.1973C26.2455 22.9031 26.3503 22.5595 26.3503 22.1911V20.0361C26.3503 19.2888 25.926 18.6393 25.3056 18.3121V15.8056H45.6146V18.312C44.9942 18.6392 44.5699 19.2887 44.5699 20.036V22.1911C44.5699 22.5595 44.6749 22.9031 44.8536 23.1973C44.6747 23.4915 44.5699 23.8352 44.5699 24.2036V26.3587C44.5699 26.7271 44.6749 27.0708 44.8536 27.365C44.6747 27.6592 44.5699 28.0028 44.5699 28.3712V30.5264C44.5699 31.2736 44.9942 31.9232 45.6146 32.2503V34.7566H38.2025C35.3767 34.7566 33.0776 37.0494 33.0776 39.8675V61.7472C33.0776 61.7805 33.081 61.813 33.0827 61.8458H25.5666V59.3393ZM15.9657 30.5891C15.9311 30.5891 15.9027 30.5608 15.9027 30.5262V28.3711C15.9027 28.3365 15.9311 28.3082 15.9657 28.3082H24.3953C24.43 28.3082 24.4584 28.3365 24.4584 28.3711V30.5262C24.4584 30.5608 24.43 30.5891 24.3953 30.5891H15.9657ZM15.9027 26.3586V24.2036C15.9027 24.169 15.9311 24.1407 15.9657 24.1407H24.3953C24.43 24.1407 24.4584 24.169 24.4584 24.2036V26.3587C24.4584 26.3933 24.43 26.4216 24.3953 26.4216H15.9657C15.9311 26.4215 15.9027 26.3933 15.9027 26.3586ZM15.9027 22.1911V20.0361C15.9027 20.0015 15.9311 19.9732 15.9657 19.9732H24.3953C24.43 19.9732 24.4584 20.0015 24.4584 20.0361V22.1911C24.4584 22.2257 24.43 22.254 24.3953 22.254H15.9657C15.9311 22.254 15.9027 22.2257 15.9027 22.1911ZM54.9542 19.9732C54.9889 19.9732 55.0173 20.0015 55.0173 20.0361V22.1911C55.0173 22.2257 54.9889 22.254 54.9542 22.254H46.5247C46.4901 22.254 46.4617 22.2257 46.4617 22.1911V20.0361C46.4617 20.0015 46.4901 19.9732 46.5247 19.9732H54.9542ZM55.0173 24.2036V26.3587C55.0173 26.3933 54.9889 26.4216 54.9542 26.4216H46.5247C46.4901 26.4216 46.4617 26.3933 46.4617 26.3587V24.2036C46.4617 24.169 46.4901 24.1407 46.5247 24.1407H54.9542C54.989 24.1407 55.0173 24.1689 55.0173 24.2036ZM55.0173 28.3711V30.5262C55.0173 30.5608 54.9889 30.5891 54.9542 30.5891H46.5247C46.4901 30.5891 46.4617 30.5608 46.4617 30.5262V28.3711C46.4617 28.3365 46.4901 28.3082 46.5247 28.3082H54.9542C54.989 28.3082 55.0173 28.3365 55.0173 28.3711ZM47.5065 34.7566V32.4759H53.9727V34.7566H47.5065ZM53.9725 15.8056V18.0865H47.5064V15.8056H53.9725ZM23.4137 15.8056V18.0865H16.9475V15.8056H23.4137ZM16.9475 32.4759H23.4137V36.8403H16.9475V32.4759ZM11.8804 40.95V38.7901C11.8804 38.7555 12.0133 38.7271 12.048 38.7271H28.8356C28.8703 38.7271 28.8987 38.7554 28.8987 38.7899V40.9451C28.8987 40.9797 28.8703 41.008 28.8356 41.008H12.048C12.0132 41.008 11.8804 40.9847 11.8804 40.95ZM23.6747 42.8947V45.1755H17.2087V42.8947H23.6747ZM17.2087 61.8458V59.5649H23.6749V61.8458H17.2087ZM35.0683 61.8458C35.0138 61.8458 34.9695 61.8015 34.9695 61.7472V59.5649H46.7035C49.4505 59.5649 51.6855 57.336 51.6855 54.5965V48.06C51.6855 45.3205 49.4505 43.0917 46.7035 43.0917H34.9695V40.8107H64.4201V61.747C64.4201 61.8015 64.3757 61.8457 64.3212 61.8457L35.0683 61.8458Z" fill="#FF004D"/>
<rect x="10.8271" y="37.7998" width="18.9519" height="4.2" rx="1.5" stroke="black" stroke-width="3"/>
</svg>
