<svg width="69" height="70" viewBox="0 0 69 70" fill="none" xmlns="http://www.w3.org/2000/svg">
<path d="M7.64309e-06 58.3333V66.5C7.64309e-06 68.433 1.54452 70 3.44978 70H54.0464C57.0388 70.0216 59.6942 68.0577 60.5895 65.1606C63.5832 65.8377 66.6581 64.4284 68.1362 61.7017C69.6143 58.9749 69.1407 55.5856 66.9738 53.3831L57.2167 43.484C54.5161 40.7883 50.1781 40.8062 47.4992 43.5241C44.8203 46.2421 44.8026 50.6432 47.4596 53.3831L50.0389 56H43.6971V23.59C43.6989 21.5752 42.6771 19.7016 40.9936 18.6328L35.0474 14.8715C34.7092 14.654 34.5024 14.2778 34.4977 13.8717V11.6667H35.6476C36.9178 11.6667 37.9475 10.622 37.9475 9.33333V3.5C37.9475 1.567 36.403 0 34.4977 0H9.19939C7.29414 0 5.74962 1.567 5.74962 3.5V9.33333C5.74962 10.622 6.7793 11.6667 8.04947 11.6667H9.19939V13.8717C9.19589 14.2736 8.99318 14.6468 8.66008 14.8645L2.69658 18.6375C1.01596 19.706 -0.00321993 21.5778 7.64309e-06 23.59V58.3333ZM3.44978 67.6666C2.81469 67.6666 2.29985 67.1443 2.29985 66.5V59.5H34.2758C32.7774 62.1187 33.1181 65.4196 35.1187 67.6666H3.44978ZM35.6476 63C35.6465 61.7615 36.129 60.5731 36.9896 59.6948C37.145 59.5399 37.3115 59.3968 37.4875 59.2666C38.281 58.6557 39.2512 58.3276 40.2473 58.3333L45.9969 58.3332V67.6666H40.2473C37.707 67.6666 35.6476 65.5773 35.6476 63ZM66.6956 58.3333C66.6988 59.5719 66.2135 60.7604 65.3478 61.6338C63.5269 63.3938 60.6649 63.3938 58.8439 61.6338L54.7778 57.5085L61.2829 50.9086L65.3478 55.0328C66.2135 55.9062 66.6988 57.0947 66.6956 58.3333ZM47.7391 48.4342C47.739 46.5468 48.8595 44.8451 50.5781 44.1227C52.2968 43.4003 54.2751 43.7993 55.5907 45.1337L59.6569 49.259L53.1518 55.8588L49.0856 51.7335C48.2206 50.8602 47.7357 49.6722 47.7391 48.4342ZM57.2179 63.2835C57.5947 63.6631 58.0134 63.9974 58.4656 64.2798C57.9152 66.2916 56.1042 67.6795 54.0464 67.6666L48.2968 67.6667V58.3333H52.3388L57.2179 63.2835ZM41.3972 56H40.2473C38.9012 55.9998 37.5855 56.4059 36.4675 57.1666H2.29985V30.3333H41.3972V56ZM8.04947 3.5C8.04947 2.85567 8.56431 2.33333 9.19939 2.33333H34.4977C35.1328 2.33333 35.6476 2.85567 35.6476 3.5V9.33333H32.1979V5.83333C32.1979 5.189 31.683 4.66667 31.0479 4.66667C30.4128 4.66667 29.898 5.189 29.898 5.83333V9.33333H27.5982V5.83333C27.5982 5.189 27.0833 4.66667 26.4482 4.66667C25.8132 4.66667 25.2983 5.189 25.2983 5.83333V9.33333H22.9985V5.83333C22.9985 5.189 22.4836 4.66667 21.8485 4.66667C21.2135 4.66667 20.6986 5.189 20.6986 5.83333V9.33333H18.3988V5.83333C18.3988 5.189 17.8839 4.66667 17.2489 4.66667C16.6138 4.66667 16.0989 5.189 16.0989 5.83333V9.33333H13.7991V5.83333C13.7991 5.189 13.2842 4.66667 12.6492 4.66667C12.0141 4.66667 11.4992 5.189 11.4992 5.83333V9.33333H8.04947V3.5ZM3.9201 20.6127L9.88935 16.8385C10.8933 16.1963 11.5013 15.0757 11.4992 13.8717V11.6667H32.1979V13.8717C32.1981 15.0799 32.8111 16.203 33.8204 16.8443L39.7701 20.6092C40.7828 21.2517 41.3977 22.3782 41.3972 23.59V28H2.29985L2.29985 23.59C2.29885 22.3808 2.91092 21.256 3.9201 20.6127Z" fill="#FF004D"/>
<path d="M21.8488 42C16.3912 42 14.9492 47.3422 14.9492 50.1667C14.9492 53.3505 19.0659 54.8333 21.8488 54.8333C24.6316 54.8333 28.7483 53.3505 28.7483 50.1667C28.7483 47.3422 27.3063 42 21.8488 42ZM21.8488 52.5C19.7651 52.5 17.2491 51.4593 17.2491 50.1667C17.2491 49.9333 17.3008 44.3333 21.8488 44.3333C26.3967 44.3333 26.4485 49.9333 26.4485 50.1667C26.4485 51.4593 23.9324 52.5 21.8488 52.5Z" fill="black"/>
<path d="M12.8068 38.6268C13.3781 40.4845 15.0308 41.7836 16.9466 41.8806C17.3478 41.8809 17.7463 41.8127 18.1252 41.6788C20.3098 40.7162 21.324 38.1494 20.3998 35.9224C19.7503 33.5978 17.3771 32.237 15.0791 32.8716C12.8956 33.8346 11.8824 36.4008 12.8068 38.6268ZM17.3663 39.4761C16.4832 39.7946 15.3896 39.0479 14.9768 37.8544C14.4995 36.8406 14.878 35.6249 15.8426 35.0731C16.7258 34.7569 17.8205 35.5024 18.2322 36.6948C18.7096 37.7092 18.33 38.9255 17.364 39.4761H17.3663Z" fill="black"/>
<path d="M11.5001 40.834C9.59453 40.834 8.0498 42.4012 8.0498 44.3345C8.0498 46.2677 9.59453 47.835 11.5001 47.835C13.4056 47.835 14.9503 46.2677 14.9503 44.3345C14.9503 42.4012 13.4056 40.834 11.5001 40.834ZM11.5001 45.5013C10.8649 45.5013 10.35 44.9789 10.35 44.3345C10.35 43.6901 10.8649 43.1676 11.5001 43.1676C12.1352 43.1676 12.6501 43.6901 12.6501 44.3345C12.6501 44.9789 12.1352 45.5013 11.5001 45.5013Z" fill="black"/>
<path d="M23.2943 35.9222C22.3709 38.1495 23.3855 40.7159 25.57 41.6785C25.9489 41.8124 26.3474 41.8807 26.7487 41.8803C28.6643 41.783 30.3168 40.484 30.8884 38.6265C31.8119 36.3995 30.7979 33.8332 28.6138 32.8702C26.3162 32.2391 23.9455 33.5993 23.2943 35.9222ZM28.7208 37.8542C28.308 39.0477 27.2178 39.7943 26.3312 39.4758C25.3661 38.9244 24.9875 37.7083 25.4654 36.6945C25.7209 35.7774 26.4973 35.1077 27.4306 34.9993C27.5747 34.9988 27.7178 35.0233 27.8537 35.0717C28.8195 35.6232 29.1985 36.8397 28.7208 37.8542Z" fill="black"/>
<path d="M32.1983 40.834C30.2928 40.834 28.748 42.4012 28.748 44.3345C28.748 46.2677 30.2928 47.835 32.1983 47.835C34.1038 47.835 35.6485 46.2677 35.6485 44.3345C35.6485 42.4012 34.1038 40.834 32.1983 40.834ZM32.1983 45.5013C31.5631 45.5013 31.0482 44.9789 31.0482 44.3345C31.0482 43.6901 31.5631 43.1676 32.1983 43.1676C32.8335 43.1676 33.3484 43.6901 33.3484 44.3345C33.3484 44.9789 32.8335 45.5013 32.1983 45.5013Z" fill="black"/>
<path d="M14.9489 16.3337H16.099C16.7342 16.3337 17.2491 15.8113 17.2491 15.1668C17.2491 14.5224 16.7342 14 16.099 14H14.9489C14.3137 14 13.7988 14.5224 13.7988 15.1668C13.7988 15.8113 14.3137 16.3337 14.9489 16.3337Z" fill="#FF004D"/>
<path d="M20.6988 16.3333H28.7482C29.3833 16.3333 29.8981 15.811 29.8981 15.1667C29.8981 14.5223 29.3833 14 28.7482 14H20.6988C20.0637 14 19.5488 14.5223 19.5488 15.1667C19.5488 15.811 20.0637 16.3333 20.6988 16.3333Z" fill="#FF004D"/>
<path d="M8.04986 63H5.74969C5.11452 63 4.59961 63.5224 4.59961 64.1668C4.59961 64.8112 5.11452 65.3337 5.74969 65.3337H8.04986C8.68503 65.3337 9.19994 64.8112 9.19994 64.1668C9.19994 63.5224 8.68503 63 8.04986 63Z" fill="#FF004D"/>
<path d="M22.9983 63H12.6489C12.0139 63 11.499 63.5223 11.499 64.1667C11.499 64.811 12.0139 65.3333 12.6489 65.3333H22.9983C23.6333 65.3333 24.1482 64.811 24.1482 64.1667C24.1482 63.5223 23.6333 63 22.9983 63Z" fill="#FF004D"/>
</svg>
