<svg width="386" height="424" viewBox="0 0 386 424" fill="none" xmlns="http://www.w3.org/2000/svg">
<g clip-path="url(#clip0)">
<path d="M164.918 338.56C173.415 335.325 178.97 331.23 181.919 326.037C192.893 306.645 214.373 296.099 233.902 301.331C253.429 306.564 267.411 326.612 267.216 348.904C267.179 354.854 269.939 361.188 275.681 368.247C282.667 376.85 284.03 387.625 279.236 396.378C273.47 406.91 258.273 413.578 241.159 408.992C233.922 407.053 227.548 403.356 222.733 398.308C219.538 394.94 214.669 392.305 209.888 391.024C205.11 389.743 200.241 389.761 195.74 391.064C189.023 393.044 181.69 393.077 174.52 391.155C157.415 386.572 147.498 373.23 147.769 361.154C147.994 351.174 154.574 342.517 164.918 338.56Z" fill="black" fill-opacity="0.25"/>
<path d="M283.495 314.62C286.53 303.293 300.318 287.655 310.938 290.501C321.555 293.346 325.68 313.784 322.645 325.11C319.753 335.901 308.615 342.331 297.825 339.44C287.034 336.548 280.603 325.411 283.495 314.62Z" fill="black" fill-opacity="0.25"/>
<path d="M173.257 253.609C183.875 256.454 187.999 276.892 184.964 288.218C182.073 299.009 170.935 305.44 160.144 302.548C149.353 299.657 142.923 288.519 145.814 277.728C148.849 266.402 162.637 250.764 173.257 253.609Z" fill="black" fill-opacity="0.25"/>
<path d="M234.605 259.556C231.713 270.349 220.575 276.779 209.785 273.888C198.994 270.997 192.563 259.859 195.455 249.065C198.49 237.739 212.278 222.104 222.898 224.949C233.518 227.795 237.64 248.229 234.605 259.556Z" fill="black" fill-opacity="0.25"/>
<path d="M269.162 289.798C258.371 286.907 251.941 275.769 254.833 264.976C257.868 253.649 271.658 238.015 282.275 240.86C292.895 243.705 297.02 264.14 293.985 275.467C291.093 286.26 279.955 292.691 269.162 289.798Z" fill="black" fill-opacity="0.25"/>
<path d="M52.4232 129.379C60.9204 126.144 66.6498 121.396 69.5988 116.204C80.5724 96.8112 102.531 87.0929 122.06 92.3257C141.586 97.5578 155.091 116.778 154.895 139.07C154.858 145.023 157.444 152.007 163.185 159.069C170.171 167.672 171.535 178.444 166.74 187.2C160.975 197.729 145.778 204.397 128.664 199.812C121.427 197.873 115.052 194.178 110.237 189.127C107.043 185.76 102.827 183.299 98.0461 182.018C93.2677 180.738 87.7456 180.581 83.2452 181.884C76.5275 183.863 69.1939 183.899 62.0238 181.977C44.9195 177.394 35.0032 164.049 35.2735 151.974C35.499 141.993 42.0787 133.339 52.4232 129.379Z" fill="black" fill-opacity="0.25"/>
<path d="M170.996 105.438C174.031 94.112 187.822 78.4747 198.442 81.3203C209.059 84.1653 213.183 104.603 210.149 115.929C207.257 126.72 196.119 133.15 185.329 130.259C174.535 127.367 168.105 116.229 170.996 105.438Z" fill="black" fill-opacity="0.25"/>
<path d="M60.7609 44.4287C71.3784 47.2737 75.5028 67.7113 72.4679 79.0376C69.5765 89.8284 58.4387 96.2589 47.6478 93.3675C36.8544 90.4754 30.424 79.3375 33.3154 68.5467C36.3503 57.2204 50.1409 41.5831 60.7609 44.4287Z" fill="black" fill-opacity="0.25"/>
<path d="M122.109 50.3784C119.217 61.1693 108.079 67.5997 97.2885 64.7083C86.4977 61.8169 80.0672 50.6791 82.9586 39.8882C85.9935 28.5619 99.7816 12.9239 110.402 15.7696C121.022 18.6152 125.143 39.0521 122.109 50.3784Z" fill="black" fill-opacity="0.25"/>
<path d="M181.486 66.2886C178.594 77.0794 167.456 83.5098 156.665 80.6184C145.875 77.727 139.444 66.5892 142.336 55.7984C145.37 44.472 159.161 28.8348 169.779 31.6797C180.399 34.5253 184.52 54.9622 181.486 66.2886Z" fill="black" fill-opacity="0.25"/>
</g>
<defs>
<clipPath id="clip0">
<rect width="346" height="346" fill="white" transform="matrix(-0.965926 -0.258819 -0.258819 0.965926 385.762 89.5518)"/>
</clipPath>
</defs>
</svg>
