<svg width="74" height="70" viewBox="0 0 74 70" fill="none" xmlns="http://www.w3.org/2000/svg">
<path d="M61.9884 65.8816L54.2391 16.2769C54.2391 14.7925 54.2391 5.02228 54.2391 3.48296C54.2391 2.11383 53.1409 1 51.791 1H14.7678C13.488 1 12.4469 2.05592 12.4469 3.35405V16.2764L5.03508 63.722C4.766 65.4431 6.07916 67 7.79545 67H23.325C23.8512 67 24.2782 66.5675 24.2782 66.0332C24.2782 65.4989 23.8512 65.0664 23.325 65.0664H7.79545C7.24933 65.0664 6.8323 64.5719 6.91819 64.0246L14.3414 16.504C14.3493 16.4536 14.3533 16.4033 14.3533 16.3524V8.28018H52.3326V16.2764L44.7108 65.0664H27.7733C27.2466 65.0664 26.8201 65.4989 26.8201 66.0332C26.8201 66.5675 27.2466 67 27.7733 67H61.0471C61.6384 67 62.0778 66.4501 61.9884 65.8816ZM14.3533 6.34608V3.35405C14.3533 3.12242 14.539 2.93359 14.7678 2.93359H51.791C52.0898 2.93359 52.3326 3.18033 52.3326 3.48296V6.34608H14.3533ZM52.3326 28.6333V58.4438L46.8913 63.4651L52.3326 28.6333ZM47.9895 65.0664C48.5758 64.5251 52.6995 60.7193 53.2858 60.1785L53.3231 60.2128L58.5827 65.0664H47.9895ZM54.2391 58.4438V28.6333L59.6804 63.4651C56.3267 60.3704 57.5222 61.4731 54.2391 58.4438Z" fill="#FF004D"/>
<path d="M45.0174 14C45.5601 14 46 13.5526 46 13C46 12.4474 45.5601 12 45.0174 12H19.982C19.4399 12 19 12.4474 19 13C19 13.5526 19.4399 14 19.982 14H45.0174Z" fill="#FF004D"/>
<path d="M39 39.8136C39 37.5251 36.6435 36.0948 34.7898 37.2673C36.2142 35.0321 34.6962 32 32.1541 32C30.5367 32 29.1979 33.2902 29 34.9521C28.8021 33.2902 27.4633 32 25.8459 32C23.3048 32 21.7853 35.0316 23.2102 37.2673C21.3575 36.0953 19 37.5246 19 39.8136C19 41.9368 21.0596 43.3833 22.901 42.5288C18.8685 48.8692 22.7085 55.9648 28.4638 53.4859C28.805 53.3395 29.1955 53.3395 29.5362 53.4859C35.3781 56.0019 39.0793 48.7908 35.1034 42.5304C36.9439 43.3807 39 41.9347 39 39.8136ZM21.7883 40.767C21.293 40.767 20.8907 40.3392 20.8907 39.8136C20.8907 39.2875 21.293 38.8602 21.7883 38.8602C22.2831 38.8602 22.6859 39.2875 22.6859 39.8136C22.6859 40.3392 22.2831 40.767 21.7883 40.767ZM32.1541 34.0082C32.8656 34.0082 33.4436 34.6227 33.4436 35.3778C33.4436 36.1335 32.8651 36.748 32.1541 36.748C31.4431 36.748 30.8646 36.1335 30.8646 35.3778C30.8646 34.6227 31.4431 34.0082 32.1541 34.0082ZM25.8459 34.0082C26.5569 34.0082 27.1354 34.6227 27.1354 35.3778C27.1354 36.1335 26.5569 36.748 25.8459 36.748C25.1344 36.748 24.5559 36.1335 24.5559 35.3778C24.5559 34.6227 25.1344 34.0082 25.8459 34.0082ZM29 35.8046C29.2905 38.2437 31.8887 39.561 33.8577 38.2285C33.4274 38.947 33.3161 39.811 33.5263 40.6101C30.5662 37.8242 27.2053 38.0407 24.4722 40.6148C24.6849 39.8125 24.5726 38.947 24.1423 38.2285C26.1108 39.5605 28.709 38.2447 29 35.8046ZM30.2467 51.6247C29.4426 51.2785 28.5574 51.2785 27.7533 51.6247C23.8533 53.3045 21.708 48.681 24.161 44.1683C25.4899 41.7235 27.518 40.5986 28.9852 40.5986C30.7095 40.5986 32.6593 41.9985 33.839 44.1683C36.291 48.6783 34.1497 53.3045 30.2467 51.6247ZM35.3141 39.8136C35.3141 39.2875 35.7164 38.8602 36.2117 38.8602C36.7065 38.8602 37.1093 39.2875 37.1093 39.8136C37.1093 40.3392 36.7065 40.767 36.2117 40.767C35.7164 40.767 35.3141 40.3392 35.3141 39.8136Z" fill="black"/>
<path d="M28.4616 63.7461C28.4616 63.1557 28.0239 62.6777 27.4833 62.6777H25.1707C24.6301 62.6777 24.1924 63.1557 24.1924 63.7461C24.1924 64.3365 24.6301 64.8145 25.1707 64.8145H27.4833C28.0239 64.8145 28.4616 64.3365 28.4616 63.7461Z" fill="#FF004D"/>
<path d="M16.2108 29.513L12.0223 56.9315C11.8516 58.0176 12.6847 59 13.7736 59H40.0377C40.9149 59 41.6516 58.3656 41.7896 57.487L43.4376 46.6966C43.5178 46.1735 43.162 45.6838 42.6435 45.6035C42.1246 45.5231 41.6397 45.8815 41.56 46.4046L39.9289 57.0832H13.9216L18.0715 29.9168H44.0788L42.2433 41.9321C42.1636 42.4553 42.5189 42.9444 43.0379 43.0253C43.5573 43.1077 44.0412 42.7473 44.1213 42.2241L45.9776 30.069C46.1488 28.9829 45.3157 28 44.2267 28H17.9627C17.085 28 16.3488 28.6349 16.2108 29.513Z" fill="#FF004D"/>
</svg>
