<svg width="74" height="70" viewBox="0 0 74 70" fill="none" xmlns="http://www.w3.org/2000/svg">
<g clip-path="url(#clip0)">
<path d="M70.932 62.259H64.6885C67.1252 60.2483 68.6992 57.0967 68.6992 53.5576V46.3401C70.0904 45.6923 71.0659 44.2083 71.0659 42.4845C71.0659 40.7607 70.0905 39.2766 68.6992 38.6287V22.7961C68.6992 16.738 64.0917 11.8093 58.4284 11.8093H49.5047V8.5034C49.5047 6.21602 47.7651 4.35525 45.6267 4.35525H44.5954V3.85673C44.5954 2.38646 43.4771 1.19043 42.1028 1.19043H29.5389C28.1646 1.19043 27.0464 2.38646 27.0464 3.85673V4.35525H26.015C23.8767 4.35525 22.1372 6.21617 22.1372 8.5034V11.8095H13.2135C7.55017 11.8095 2.94264 16.7381 2.94264 22.7963V26.7902C2.94264 27.4213 3.42093 27.9329 4.01088 27.9329C4.60083 27.9329 5.07912 27.4213 5.07912 26.7902V22.7963C5.07912 17.9983 8.72822 14.0949 13.2135 14.0949H58.4285C62.9138 14.0949 66.5629 17.9983 66.5629 22.7963V38.2812H5.07912V31.361C5.07912 30.73 4.60083 30.2183 4.01088 30.2183C3.42093 30.2183 2.94264 30.73 2.94264 31.361V38.4985C1.38401 39.0566 0.257379 40.6321 0.257379 42.4848C0.257379 44.3374 1.38416 45.9129 2.94264 46.471V53.5579C2.94264 57.097 4.51666 60.2486 6.95352 62.2593H0.143433C-0.446519 62.2593 -0.924805 62.7709 -0.924805 63.402C-0.924805 64.0331 -0.446519 64.5447 0.143433 64.5447H70.932C71.522 64.5447 72.0002 64.0331 72.0002 63.402C72.0002 62.7709 71.522 62.259 70.932 62.259ZM29.183 3.85673C29.183 3.64678 29.3428 3.47583 29.5391 3.47583H42.103C42.2992 3.47583 42.459 3.64678 42.459 3.85673V7.1349C42.459 7.34485 42.2992 7.5158 42.103 7.5158H29.5391C29.3428 7.5158 29.183 7.34485 29.183 7.1349V3.85673ZM24.2736 8.5034C24.2736 7.47619 25.0547 6.64065 26.015 6.64065H27.0464V7.1349C27.0464 8.60502 28.1646 9.8012 29.5389 9.8012H42.1028C43.4771 9.8012 44.5954 8.60502 44.5954 7.1349V6.64065H45.6267C46.587 6.64065 47.3682 7.47634 47.3682 8.5034V11.8095H24.2736V8.5034ZM67.1363 44.4026H56.0439V40.5665H67.1363C68.1251 40.5665 68.9294 41.4268 68.9294 42.4845C68.9294 43.5422 68.125 44.4026 67.1363 44.4026ZM53.9074 40.5665V47.2432C53.9074 48.4333 53.0024 49.4014 51.8899 49.4014C50.7773 49.4014 49.8723 48.4333 49.8723 47.2432V40.5665H53.9074ZM17.7345 40.5665H21.7696V47.2432C21.7696 48.4333 20.8645 49.4014 19.752 49.4014C18.6395 49.4014 17.7345 48.4333 17.7345 47.2432V40.5665ZM2.39371 42.4845C2.39371 41.4268 3.19817 40.5665 4.18679 40.5665H15.598V44.4026H4.18693C3.19817 44.4026 2.39371 43.5422 2.39371 42.4845ZM13.2135 62.259C8.72822 62.259 5.07912 58.3555 5.07912 53.5576V46.688H15.5981V47.243C15.5981 49.6933 17.4617 51.6866 19.7522 51.6866C22.0427 51.6866 23.9062 49.6933 23.9062 47.243V46.688H38.7C39.2899 46.688 39.7682 46.1764 39.7682 45.5453C39.7682 44.9142 39.2899 44.4026 38.7 44.4026H23.906V40.5665H47.7359V44.4026H42.9728C42.3828 44.4026 41.9046 44.9142 41.9046 45.5453C41.9046 46.1764 42.3828 46.688 42.9728 46.688H47.7359V47.243C47.7359 49.6933 49.5993 51.6866 51.8899 51.6866C54.1805 51.6866 56.0439 49.6933 56.0439 47.243V46.688H66.5629V53.5576C66.5629 58.3555 62.9138 62.259 58.4285 62.259H13.2135Z" fill="#FF004D"/>
<path d="M18.8346 35.6825C20.544 35.6825 21.9349 34.1947 21.9349 32.3659V21.5939C21.9349 19.7653 20.544 18.2773 18.8346 18.2773H18.6981C16.9886 18.2773 15.5977 19.7651 15.5977 21.5939V32.3659C15.5977 34.1947 16.9885 35.6825 18.6981 35.6825H18.8346ZM17.7341 32.3659V21.5939C17.7341 21.0255 18.1666 20.5627 18.6981 20.5627H18.8346C19.366 20.5627 19.7984 21.0253 19.7984 21.5939V32.3659C19.7984 32.9345 19.366 33.3971 18.8346 33.3971H18.6981C18.1667 33.3971 17.7341 32.9345 17.7341 32.3659Z" fill="black"/>
<path d="M27.3618 35.4198C29.0714 35.4198 30.4622 33.932 30.4622 32.1032V21.3312C30.4622 19.5024 29.0714 18.0146 27.3618 18.0146H27.2255C25.516 18.0146 24.125 19.5024 24.125 21.3312V32.1032C24.125 33.9318 25.5158 35.4198 27.2255 35.4198H27.3618ZM26.2615 32.1034V21.3314C26.2615 20.7629 26.6939 20.3002 27.2255 20.3002H27.3618C27.8933 20.3002 28.3257 20.7628 28.3257 21.3314V32.1034C28.3257 32.6718 27.8933 33.1345 27.3618 33.1345H27.2255C26.6939 33.1344 26.2615 32.6718 26.2615 32.1034Z" fill="black"/>
<path d="M35.8891 35.1571C37.5986 35.1571 38.9896 33.6693 38.9896 31.8405V21.0685C38.9896 19.2399 37.5987 17.752 35.8891 17.752H35.7528C34.0432 17.752 32.6523 19.2397 32.6523 21.0685V31.8405C32.6523 33.6693 34.0432 35.1571 35.7528 35.1571H35.8891ZM34.7888 31.8407V21.0687C34.7888 20.5002 35.2213 20.0375 35.7528 20.0375H35.8891C36.4205 20.0375 36.8531 20.5001 36.8531 21.0687V31.8407C36.8531 32.4091 36.4207 32.8718 35.8891 32.8718H35.7528C35.2213 32.8717 34.7888 32.4091 34.7888 31.8407Z" fill="black"/>
<path d="M44.4164 34.8952C46.1261 34.8952 47.5169 33.4074 47.5169 31.5788V20.8068C47.5169 18.978 46.1261 17.4902 44.4164 17.4902H44.2801C42.5707 17.4902 41.1797 18.978 41.1797 20.8068V31.5788C41.1797 33.4074 42.5705 34.8952 44.2801 34.8952H44.4164ZM43.3162 31.5788V20.8068C43.3162 20.2382 43.7486 19.7756 44.2801 19.7756H44.4164C44.948 19.7756 45.3804 20.2382 45.3804 20.8068V31.5788C45.3804 32.1473 44.948 32.61 44.4164 32.61H44.2801C43.7486 32.6098 43.3162 32.1473 43.3162 31.5788Z" fill="black"/>
<path d="M52.9438 34.6317C54.6533 34.6317 56.0443 33.1439 56.0443 31.3151V20.5431C56.0443 18.7144 54.6534 17.2266 52.9438 17.2266H52.8073C51.0979 17.2266 49.707 18.7144 49.707 20.5431V31.3151C49.707 33.1439 51.0979 34.6317 52.8073 34.6317H52.9438ZM51.8435 31.3153V20.5433C51.8435 19.9748 52.2759 19.5121 52.8073 19.5121H52.9438C53.4752 19.5121 53.9078 19.9747 53.9078 20.5433V31.3153C53.9078 31.8837 53.4754 32.3464 52.9438 32.3464H52.8073C52.2759 32.3463 51.8435 31.8837 51.8435 31.3153Z" fill="black"/>
<path d="M44.9986 53.1182H26.618C26.0281 53.1182 25.5498 53.6298 25.5498 54.2609C25.5498 54.8919 26.0281 55.4036 26.618 55.4036H44.9986C45.5885 55.4036 46.0668 54.8919 46.0668 54.2609C46.0668 53.6298 45.5885 53.1182 44.9986 53.1182Z" fill="black"/>
</g>
<defs>
<clipPath id="clip0">
<rect width="74" height="70" fill="white"/>
</clipPath>
</defs>
</svg>
