<svg width="28" height="27" viewBox="0 0 28 27" fill="none" xmlns="http://www.w3.org/2000/svg">
<g clip-path="url(#clip0)">
<path d="M19.7711 16.12L19.7706 16.1184C19.0286 13.3525 16.5496 11.457 13.9338 11.457C11.3359 11.457 8.94758 13.3348 8.20081 16.1198L8.20015 16.1223C7.89164 17.2611 7.04997 18.3345 5.79165 19.2125L19.7711 16.12ZM19.7711 16.12C20.0795 17.2621 20.9214 18.3345 22.1794 19.211C23.2696 19.9736 23.6635 21.0578 23.4208 22.0175C23.1235 23.1921 21.6282 24.5149 19.2525 24.5149C18.2835 24.5149 17.3792 24.2717 16.6297 23.8302L16.6257 23.8278C15.8315 23.365 14.8284 23.1462 13.931 23.1462C13.0095 23.1462 12.1118 23.3768 11.3414 23.8319C10.5973 24.2691 9.68765 24.5118 8.70524 24.5118C6.33158 24.5118 4.84563 23.1846 4.55066 22.0178L4.55064 22.0177M19.7711 16.12L4.55064 22.0177M4.55064 22.0177C4.3078 21.0575 4.70046 19.975 5.79159 19.2126L4.55064 22.0177Z" stroke="#FF004D" stroke-width="2"/>
<path d="M3.08865 6.97559C3.38601 6.97559 3.90016 7.26482 4.42017 8.09779C4.90755 8.8785 5.18748 9.81784 5.18748 10.4574C5.18748 11.5181 4.27947 12.4452 3.08865 12.4452C1.89832 12.4452 0.990234 11.5182 0.990234 10.4574C0.990234 9.81783 1.27016 8.87848 1.75752 8.09775C2.27753 7.26471 2.79157 6.97559 3.08865 6.97559Z" stroke="#FF004D" stroke-width="2"/>
<path d="M22.7832 10.4574C22.7832 9.81783 23.0631 8.87848 23.5505 8.09775C24.0705 7.26471 24.5845 6.97559 24.8816 6.97559C25.179 6.97559 25.6931 7.26482 26.2131 8.09779C26.7005 8.8785 26.9804 9.81784 26.9804 10.4574C26.9804 11.5181 26.0724 12.4452 24.8816 12.4452C23.6913 12.4452 22.7832 11.5182 22.7832 10.4574Z" stroke="#FF004D" stroke-width="2"/>
<path d="M18.6853 6.4696C17.495 6.4696 16.5869 5.54261 16.5869 4.48184C16.5869 3.84219 16.8668 2.90282 17.3541 2.12213C17.874 1.28918 18.388 1 18.6853 1C18.9826 1 19.4967 1.28918 20.0166 2.12213C20.5039 2.90282 20.7838 3.84219 20.7838 4.48184C20.7838 5.54261 19.8757 6.4696 18.6853 6.4696Z" stroke="#FF004D" stroke-width="2"/>
<path d="M9.28592 6.4696C8.09559 6.4696 7.1875 5.54261 7.1875 4.48184C7.1875 3.84219 7.46737 2.90282 7.95465 2.12213C8.47456 1.28918 8.98861 1 9.28592 1C9.583 1 10.097 1.28913 10.6171 2.12217C11.1044 2.9029 11.3843 3.84225 11.3843 4.48184C11.3843 5.54261 10.4763 6.4696 9.28592 6.4696Z" stroke="#FF004D" stroke-width="2"/>
</g>
<defs>
<clipPath id="clip0">
<rect width="28" height="27" fill="white"/>
</clipPath>
</defs>
</svg>
