<svg width="74" height="69" viewBox="0 0 74 69" fill="none" xmlns="http://www.w3.org/2000/svg">
<path d="M62.5258 49.4156C62.5243 49.4086 62.523 49.4019 62.5215 49.3958C62.1108 47.6017 61.4313 45.8334 60.5024 44.1401C59.9879 43.2027 59.3911 42.2787 58.7251 41.3877C58.8622 40.9974 58.9371 40.5758 58.9371 40.1362C58.9371 38.5496 57.9621 37.1988 56.6089 36.708V18.8277C56.6089 16.101 54.4977 13.8827 51.9026 13.8827C49.3074 13.8827 47.1962 16.101 47.1962 18.8277V25.741C47.1962 27.377 45.9295 28.7081 44.3724 28.7081C42.8153 28.7081 41.5486 27.377 41.5486 25.741V18.0464C41.8462 17.8813 42.1256 17.6676 42.3756 17.4047C43.074 16.6709 43.409 15.6982 43.3824 14.7347C43.4165 14.7357 43.4505 14.7373 43.4849 14.7373C44.4067 14.7373 45.2734 14.36 45.9253 13.6751C46.5771 12.9902 46.9362 12.0794 46.9362 11.1108C46.9362 10.4815 46.7837 9.87706 46.4988 9.34273L46.813 9.0128C48.6481 7.08462 48.6481 3.94748 46.813 2.01931C44.9779 0.0912646 41.9922 0.0911328 40.1572 2.01944L39.8433 2.34924C39.3348 2.04977 38.7595 1.88955 38.1606 1.88955C37.2388 1.88955 36.372 2.26682 35.7202 2.95175C35.0213 3.68612 34.6863 4.65957 34.7134 5.62379C33.7957 5.59544 32.8693 5.94726 32.1705 6.6815C31.0555 7.85302 30.8654 9.63271 31.5979 11.013L23.5044 19.5169C23.1368 19.9032 23.1368 20.5294 23.5044 20.9156C23.6882 21.1087 23.9291 21.2052 24.17 21.2052C24.4108 21.2052 24.6518 21.1087 24.8355 20.9156L32.836 12.5094L36.8294 16.7054L6.70091 48.3621C5.59988 49.519 3.80834 49.5187 2.70743 48.3622C1.60652 47.2053 1.60652 45.3229 2.70743 44.1662L22.1731 23.7132C22.5407 23.3268 22.5407 22.7007 22.1731 22.3145C21.8055 21.9283 21.2095 21.9283 20.842 22.3145L1.37623 42.7674C-0.458742 44.6955 -0.458742 47.8326 1.37623 49.7608C2.29377 50.7248 3.49897 51.2067 4.70417 51.2067C5.90937 51.2067 7.11457 50.7248 8.03212 49.7608L38.2536 18.0065C38.6938 18.2644 39.1767 18.4134 39.6664 18.4534V25.741C39.6664 28.4678 41.7776 30.6861 44.3727 30.6861C46.9678 30.6861 49.079 28.4678 49.079 25.741V18.8277C49.079 17.1918 50.3457 15.8607 51.9028 15.8607C53.4599 15.8607 54.7266 17.1918 54.7266 18.8277V36.5992C53.7207 36.8376 52.8802 37.5385 52.4184 38.4776C51.3437 38.6129 50.296 38.8234 49.2978 39.1051C49.2894 39.1075 49.2811 39.1098 49.2727 39.1126C47.4855 39.6195 45.8236 40.3626 44.3329 41.3215C44.3273 41.3252 44.3215 41.329 44.3158 41.3327C43.1642 42.0755 42.1003 42.9564 41.1536 43.9511C37.9815 47.2841 36.1367 51.8802 35.8187 57.2427C35.7631 58.1794 36.0944 59.0979 36.7276 59.7629C37.3173 60.3822 38.116 60.7275 38.9441 60.7275C39.0094 60.7275 39.0747 60.7252 39.1403 60.721C41.1283 60.5899 43.0203 60.2152 44.7633 59.6073C45.5061 59.3484 46.0052 58.6204 46.0052 57.7957V56.9235H48.268C48.9037 60.473 50.5572 63.8996 53.1447 66.9796C53.7355 67.683 54.5878 68.0865 55.4829 68.0865C56.3823 68.0862 57.2397 67.68 57.8341 66.9717C59.1513 65.4025 60.2369 63.7318 61.0607 62.0062C61.4115 61.2712 61.2745 60.3855 60.7197 59.8026L60.1328 59.1857L62.3623 56.843C62.6502 56.5404 62.8351 56.1398 62.8828 55.7146C62.9606 55.0204 63 54.3147 63 53.6174C63 52.2089 62.8402 50.7943 62.5258 49.4156ZM45.4818 3.41803C46.5828 4.57478 46.5828 6.45719 45.4818 7.61394L45.2599 7.84708L41.2664 3.65117L41.4883 3.41803C42.5893 2.26115 44.3809 2.26115 45.4818 3.41803ZM37.0511 4.3506C37.3475 4.03926 37.7414 3.8677 38.1605 3.8677C38.5795 3.8677 38.9735 4.03926 39.2698 4.3506L41.9321 7.14798L44.5945 9.94537C44.8906 10.2566 45.0539 10.6705 45.0539 11.1108C45.0539 11.5511 44.8908 11.9652 44.5945 12.2764C44.2981 12.5877 43.9042 12.7593 43.4851 12.7593C43.0661 12.7593 42.6721 12.5877 42.376 12.2765L37.0513 6.68163C36.4394 6.03891 36.4394 4.99319 37.0511 4.3506ZM33.5014 8.08036C34.1131 7.4375 35.1084 7.4375 35.7201 8.08036L41.0448 13.675C41.6563 14.3177 41.6563 15.3636 41.0448 16.0062C40.4331 16.6489 39.4378 16.6491 38.8261 16.0062L33.5016 10.4114C32.8897 9.7688 32.8897 8.72295 33.5014 8.08036ZM55.486 38.4877C56.3511 38.4877 57.0548 39.2271 57.0548 40.136C57.0548 41.045 56.3511 41.7844 55.486 41.7844C54.621 41.7844 53.9173 41.045 53.9173 40.136C53.9173 39.2271 54.621 38.4877 55.486 38.4877ZM61.0157 55.4605L58.7559 57.8351C58.4125 58.1957 58.2234 58.6753 58.2234 59.1855C58.2234 59.6957 58.4125 60.1753 58.7558 60.5359L59.3557 61.1662C58.6072 62.7232 57.6205 64.2357 56.4223 65.6632C56.1815 65.9501 55.8479 66.1082 55.4832 66.1084C55.1226 66.1084 54.7932 65.9529 54.5561 65.6707C51.4804 62.0094 49.8546 57.8414 49.8546 53.6174C49.8546 53.0856 49.8804 52.548 49.9311 52.0194C49.9832 51.476 49.6061 50.991 49.0889 50.9363C48.5715 50.8804 48.1101 51.2777 48.0581 51.8211C48.0011 52.4152 47.9722 53.0197 47.9722 53.6174C47.9722 54.0612 47.9882 54.504 48.0197 54.9455H45.9406C44.9383 54.9455 44.1229 55.8022 44.1229 56.8553V57.7465C42.5464 58.2912 40.8309 58.6279 39.0225 58.7469C38.6592 58.7713 38.3167 58.6349 38.0588 58.364C37.8038 58.0962 37.6756 57.7416 37.6979 57.3659C37.987 52.4918 39.6423 48.3366 42.485 45.3498C43.33 44.4619 44.2806 43.6755 45.3102 43.0125C45.3157 43.009 45.3212 43.0052 45.3268 43.0015C46.6678 42.1407 48.1681 41.4724 49.7861 41.0157C49.794 41.0135 49.8019 41.0112 49.8097 41.0087C50.532 40.8059 51.2841 40.6448 52.0549 40.525C52.0856 40.8248 52.1507 41.1138 52.2467 41.3873C51.5805 42.2787 50.9838 43.2027 50.4696 44.1399C50.4657 44.1472 50.4618 44.1543 50.458 44.1616C49.8197 45.3281 49.2964 46.5373 48.9027 47.7556C48.7355 48.2728 48.9992 48.8346 49.4914 49.0101C49.5917 49.0458 49.6937 49.0628 49.7941 49.0628C50.1863 49.0628 50.5523 48.8033 50.6855 48.3915C51.0421 47.2876 51.5183 46.1897 52.1007 45.1281C52.1045 45.1213 52.1082 45.1144 52.1117 45.1076C52.4973 44.4067 52.935 43.7132 53.4166 43.0362C53.9937 43.4919 54.7103 43.7624 55.486 43.7624C56.2619 43.7624 56.9786 43.4918 57.5557 43.0361C58.0419 43.7194 58.4832 44.4201 58.8715 45.1281C59.7088 46.6541 60.3204 48.2426 60.6885 49.8459C60.6899 49.8527 60.6914 49.8593 60.6928 49.8651C60.9746 51.0986 61.1176 52.361 61.1176 53.6171C61.1175 54.2301 61.0832 54.8501 61.0157 55.4605Z" fill="#FF004D"/>
<path fill-rule="evenodd" clip-rule="evenodd" d="M38.9716 4.75826L44.2511 10.4201C44.6541 10.8522 44.6435 11.5426 44.2275 11.9622C43.8115 12.3818 43.1476 12.3716 42.7446 11.9395L37.4651 6.27766C37.0622 5.84553 37.0727 5.1551 37.4887 4.73553C37.9048 4.31596 38.5686 4.32614 38.9716 4.75826ZM35.7838 2.90711C37.1719 1.50708 39.3872 1.54104 40.7318 2.98297L46.0113 8.64479C47.3559 10.0867 47.3206 12.3906 45.9324 13.7906C45.2292 14.4999 44.3137 14.8411 43.4067 14.8177C43.4209 15.7886 43.0643 16.7636 42.3407 17.4934C40.9503 18.8957 38.7314 18.8617 37.3847 17.4174L32.1026 11.7529C30.7558 10.3086 30.7912 8.001 32.1816 6.59869C32.888 5.88623 33.8083 5.54453 34.7194 5.57017C34.7074 4.60359 35.0634 3.63365 35.7838 2.90711ZM35.3774 8.44997L40.6595 14.1145C41.0646 14.549 41.054 15.2431 40.6357 15.665C40.2175 16.0868 39.55 16.0766 39.1449 15.6421L33.8628 9.97757C33.4577 9.54312 33.4683 8.84895 33.8866 8.42711C34.3048 8.00528 34.9723 8.01551 35.3774 8.44997Z" fill="black"/>
</svg>
