<svg width="74" height="70" viewBox="0 0 74 70" fill="none" xmlns="http://www.w3.org/2000/svg">
<path d="M28.6611 57.1973H30.7842V59.2096H28.6611V57.1973Z" fill="black"/>
<path d="M32.9072 57.1973H35.0303V59.2096H32.9072V57.1973Z" fill="black"/>
<path d="M37.1533 57.1973H39.2764V59.2096H37.1533V57.1973Z" fill="black"/>
<path d="M15.9229 32.5166H18.0459V34.5289H15.9229V32.5166Z" fill="black"/>
<path d="M13.7998 34.6631H15.9229V36.6754H13.7998V34.6631Z" fill="black"/>
<path d="M60.7097 36.3524C60.2647 31.9887 56.8875 28.5747 52.5708 28.1249V17.7429C52.5708 16.0796 51.2958 14.7907 49.6505 14.7907H47.4924V2.46973H41.5249V12.6091H43.4296V8.50212H45.5877V14.7907H39.4936C37.8488 14.7907 36.4465 16.0796 36.4465 17.7429V28.1384H27.3053V30.0638H51.6818C55.3145 30.0638 58.3229 32.7588 58.7902 36.3524H12.0714C12.5392 32.7588 15.5476 30.0638 19.1798 30.0638H25.2739V28.1384H19.1798C14.4958 28.1384 10.63 31.732 10.1524 36.3524H2.92871V44.4383H6.20347L10.2662 66H60.5954L64.6581 44.4383H67.8062V36.3524H60.7097ZM43.4296 6.57672V4.39513H45.5877V6.57672H43.4296ZM38.7833 28.1384L41.1958 20.8231H47.9487L50.3608 28.1384H38.7833ZM50.6662 23.1053L49.3213 18.8977H39.8232L38.3512 23.1053V17.7429C38.3512 17.1409 38.8986 16.7161 39.4936 16.7161H49.6505C50.2454 16.7161 50.6662 17.1409 50.6662 17.7429V23.1053ZM59.0199 64.0746H11.8422L11.4309 61.893H59.4307L59.0199 64.0746ZM65.9015 42.5129H56.7603V44.4383H62.7198L59.7935 59.9676H11.0686L8.14229 44.4383H24.2582V49.572H46.4767V44.4383H54.7289V42.5129H4.83338V38.2778H65.9015V42.5129ZM26.1629 47.6466V44.4383H44.572V47.6466H26.1629Z" fill="#FF004D"/>
</svg>
