<svg width="40" height="40" viewBox="0 0 40 40" fill="none" xmlns="http://www.w3.org/2000/svg">
<path fill-rule="evenodd" clip-rule="evenodd" d="M37.4026 26.5886L25.7271 6.62928C24.5549 4.59725 22.3702 3.33602 20.0075 3.33326C17.6445 3.33049 15.459 4.58651 14.2723 6.62937L2.59242 26.596C1.38129 28.6324 1.35389 31.1842 2.527 33.2653C3.70108 35.3481 5.89947 36.6443 8.2907 36.6637L31.6872 36.6638C34.1032 36.6403 36.2974 35.3481 37.4713 33.2671C38.6439 31.1886 38.6177 28.6425 37.4026 26.5886ZM5.46351 28.2894L17.1521 8.3081C17.744 7.28915 18.8296 6.66521 20.0036 6.66659C21.1774 6.66796 22.2626 7.29447 22.8448 8.30362L34.5295 28.2787C35.142 29.3141 35.1551 30.5887 34.5681 31.6294C33.9802 32.6715 32.8812 33.3188 31.6709 33.3306L8.30426 33.3304C7.11992 33.3208 6.01875 32.6715 5.43077 31.6284C4.84343 30.5865 4.85715 29.309 5.46351 28.2894Z" fill="#27C29B"/>
<path fill-rule="evenodd" clip-rule="evenodd" d="M20.0002 29.9972C20.921 29.9972 21.6674 29.251 21.6674 28.3305C21.6674 27.41 20.921 26.6638 20.0002 26.6638C19.0794 26.6638 18.333 27.41 18.333 28.3305C18.333 29.251 19.0794 29.9972 20.0002 29.9972Z" fill="#FFCE20"/>
<path fill-rule="evenodd" clip-rule="evenodd" d="M18.3379 13.3306H21.6723V24.9972H18.3379V13.3306Z" fill="#FFCE20"/>
</svg>
