<svg width="40" height="40" viewBox="0 0 40 40" fill="none" xmlns="http://www.w3.org/2000/svg">
<path fill-rule="evenodd" clip-rule="evenodd" d="M13.3333 10H9.99992V8.33337H6.66659V13.3334H33.3333V8.33337H29.9999V10H26.6666V8.33337H13.3333V10ZM6.66659 33.3334V16.6667H33.3333V33.3334H6.66659ZM26.6666 5.00004H13.3333V3.33337H9.99992V5.00004H6.66659C4.82564 5.00004 3.33325 6.49242 3.33325 8.33337V33.3334C3.33325 35.1743 4.82564 36.6667 6.66659 36.6667H33.3333C35.1742 36.6667 36.6666 35.1743 36.6666 33.3334V8.33337C36.6666 6.49242 35.1742 5.00004 33.3333 5.00004H29.9999V3.33337H26.6666V5.00004ZM23.8214 18.8215L19.9999 22.643L16.1784 18.8215L13.8214 21.1786L17.6429 25L13.8214 28.8215L16.1784 31.1786L19.9999 27.3571L23.8214 31.1786L26.1784 28.8215L22.3569 25L26.1784 21.1786L23.8214 18.8215Z" fill="#27C29B"/>
<path fill-rule="evenodd" clip-rule="evenodd" d="M20.0003 22.643L23.8218 18.8215L26.1788 21.1786L22.3573 25L26.1788 28.8215L23.8218 31.1786L20.0003 27.3571L16.1788 31.1786L13.8218 28.8215L17.6433 25L13.8218 21.1786L16.1788 18.8215L20.0003 22.643Z" fill="#FFCE20"/>
</svg>
