<svg width="40" height="40" viewBox="0 0 40 40" fill="none" xmlns="http://www.w3.org/2000/svg">
<circle cx="20.5" cy="19.5" r="17.5" fill="white"/>
<path fill-rule="evenodd" clip-rule="evenodd" d="M20.0001 38.3333C9.87486 38.3333 1.66675 30.1252 1.66675 20C1.66675 9.87474 9.87486 1.66663 20.0001 1.66663C30.1253 1.66663 38.3334 9.87474 38.3334 20C38.3334 30.1252 30.1253 38.3333 20.0001 38.3333ZM20.0001 35C28.2844 35 35.0001 28.2842 35.0001 20C35.0001 11.7157 28.2844 4.99996 20.0001 4.99996C11.7158 4.99996 5.00008 11.7157 5.00008 20C5.00008 28.2842 11.7158 35 20.0001 35ZM21.6667 28.3333V17.357L25.4882 21.1785L27.8453 18.8214L20.0001 10.9763L12.1549 18.8214L14.5119 21.1785L18.3334 17.357V28.3333H21.6667Z" fill="#27C29B"/>
<path fill-rule="evenodd" clip-rule="evenodd" d="M21.6666 17.357V28.3333H18.3333V17.357L14.5118 21.1785L12.1548 18.8215L20 10.9763L27.8451 18.8215L25.4881 21.1785L21.6666 17.357Z" fill="#FFCE20"/>
</svg>
