<svg width="40" height="40" viewBox="0 0 40 40" fill="none" xmlns="http://www.w3.org/2000/svg">
<path fill-rule="evenodd" clip-rule="evenodd" d="M19.9999 6.66659C23.9893 6.66659 27.4107 8.46441 29.6781 11.6666H23.3333V14.9999H34.9999V3.33325H31.6666V8.78383C28.7914 5.3041 24.6736 3.33325 19.9999 3.33325C10.7952 3.33325 3.33325 10.7952 3.33325 19.9999H6.66659C6.66659 12.6361 12.6361 6.66659 19.9999 6.66659ZM19.9999 33.3333C16.0105 33.3333 12.5892 31.5354 10.3217 28.3333H16.6666V24.9999H4.99992V36.6666H8.33325V31.216C11.2084 34.6957 15.3262 36.6666 19.9999 36.6666C29.2047 36.6666 36.6666 29.2047 36.6666 19.9999H33.3333C33.3333 27.3637 27.3637 33.3333 19.9999 33.3333Z" fill="#27C29B"/>
<path fill-rule="evenodd" clip-rule="evenodd" d="M29.6784 11.6666C27.4109 8.46441 23.9895 6.66659 20.0002 6.66659C12.6364 6.66659 6.66683 12.6361 6.66683 19.9999H3.3335C3.3335 10.7952 10.7954 3.33325 20.0002 3.33325C24.6739 3.33325 28.7917 5.3041 31.6668 8.78383V3.33325H35.0002V14.9999H23.3335V11.6666H29.6784Z" fill="#FFCE20"/>
</svg>
