<svg width="40" height="40" viewBox="0 0 40 40" fill="none" xmlns="http://www.w3.org/2000/svg">
<path fill-rule="evenodd" clip-rule="evenodd" d="M35 5H4.99996C3.15901 5 1.66663 6.49238 1.66663 8.33333V31.6667C1.66663 33.5076 3.15901 35 4.99996 35H35C36.8409 35 38.3333 33.5076 38.3333 31.6667V8.33333C38.3333 6.49238 36.8409 5 35 5ZM4.99996 31.6667V8.33333H35V31.6667H4.99996ZM13.8888 20L8.99996 16.3333L11 13.6667L19.4444 20L11 26.3333L8.99996 23.6667L13.8888 20ZM20 23.3333V26.6667H28.3333V23.3333H20Z" fill="#27C29B"/>
<path fill-rule="evenodd" clip-rule="evenodd" d="M13.8889 20L9 16.3333L11 13.6666L19.4444 20L11 26.3333L9 23.6666L13.8889 20Z" fill="#FFCE20"/>
<path fill-rule="evenodd" clip-rule="evenodd" d="M20 26.6667V23.3334H28.3333V26.6667H20Z" fill="#FFCE20"/>
</svg>
