<svg width="238" height="24" viewBox="0 0 238 24" fill="none" xmlns="http://www.w3.org/2000/svg">
<path d="M15.3529 19.0387H7.82612L6.78141 22.6665H0L8.07049 0.708683H15.304L23.3745 22.6665H16.4281L15.3529 19.0387ZM13.9722 14.2891L11.6017 6.39505L9.25571 14.2891H13.9722Z" fill="black"/>
<path d="M24.0829 0.708683H36.4845C38.5545 0.708683 40.1544 1.22765 41.2535 2.28349C42.3587 3.33336 42.9144 4.63377 42.9144 6.17876C42.9144 7.4732 42.5236 8.58869 41.7298 9.5133C41.2046 10.1337 40.4291 10.6288 39.4216 10.9867C40.9604 11.3685 42.0961 12.0187 42.8289 12.9433C43.5494 13.8619 43.9158 15.0251 43.9158 16.421C43.9158 17.5603 43.6593 18.5923 43.1403 19.4931C42.6213 20.3998 41.9129 21.1156 41.0153 21.6405C40.4597 21.9746 39.6231 22.2132 38.4996 22.3683C37.0097 22.5651 36.0144 22.6665 35.532 22.6665H24.0951V0.708683H24.0829ZM30.7691 9.31645H33.6513C34.6893 9.31645 35.4037 9.14346 35.8068 8.77361C36.2159 8.40377 36.4174 7.8848 36.4174 7.19284C36.4174 6.5486 36.222 6.04752 35.8068 5.68961C35.4037 5.3317 34.6954 5.14678 33.7001 5.14678H30.7691V9.31645ZM30.7691 17.9421H34.152C35.2938 17.9421 36.0937 17.7274 36.5639 17.3158C37.028 16.9042 37.2661 16.3494 37.2661 15.6515C37.2661 15.0013 37.0341 14.4763 36.57 14.0886C36.106 13.6889 35.2938 13.4921 34.1337 13.4921H30.7691V17.9421Z" fill="black"/>
<path d="M44.6238 0.708683H64.4567V6.13251H57.8037V22.6665H51.2768V6.13251H44.6238V0.708683Z" fill="black"/>
<path d="M65.1653 11.6903C65.1653 8.00025 66.1363 5.13293 68.0601 3.08221C69.9899 1.02536 72.6615 0 76.105 0C79.627 0 82.3529 1.00694 84.2525 3.02696C86.1582 5.04698 87.1232 7.87746 87.1232 11.5123C87.1232 14.1585 86.701 16.3136 85.8688 18.0082C85.0365 19.7028 83.8304 21.0229 82.2564 21.9562C80.6824 22.9017 78.7103 23.3745 76.3644 23.3745C73.9762 23.3745 72.0102 22.9631 70.4301 22.1588C68.8622 21.3422 67.6017 20.0528 66.6247 18.303C65.6598 16.5285 65.1653 14.3305 65.1653 11.6903ZM71.7147 11.721C71.7147 14.005 72.1067 15.6444 72.9088 16.639C73.7048 17.6398 74.7903 18.1372 76.1473 18.1372C77.5584 18.1372 78.644 17.646 79.4159 16.6697C80.1878 15.6935 80.5738 13.9375 80.5738 11.414C80.5738 9.28349 80.1697 7.7301 79.3616 6.75386C78.5716 5.77148 77.474 5.27415 76.099 5.27415C74.7783 5.27415 73.7108 5.77762 72.9148 6.77228C72.1187 7.77308 71.7147 9.4247 71.7147 11.721Z" fill="black"/>
<path d="M109.081 22.6665H102.46V6.10864H95.173V22.6665H88.5399V0.708683H109.081V22.6665Z" fill="black"/>
<path d="M110.498 11.6903C110.498 8.00025 111.5 5.13293 113.492 3.08221C115.472 1.02536 118.254 0 121.796 0C125.432 0 128.246 1.00694 130.213 3.02696C132.186 5.04698 133.164 7.87746 133.164 11.5123C133.164 14.1585 132.728 16.3136 131.869 18.0082C131.01 19.7028 129.765 21.0229 128.14 21.9562C126.515 22.9017 124.492 23.3745 122.064 23.3745C119.599 23.3745 117.557 22.9631 115.938 22.1588C114.32 21.3422 113.006 20.0528 111.998 18.303C111.002 16.5285 110.498 14.3305 110.498 11.6903ZM117.258 11.721C117.258 14.005 117.675 15.6444 118.491 16.639C119.313 17.6398 120.433 18.1372 121.834 18.1372C123.291 18.1372 124.423 17.646 125.208 16.6697C126.005 15.6935 126.403 13.9375 126.403 11.414C126.403 9.28349 125.986 7.7301 125.158 6.75386C124.33 5.77148 123.197 5.27415 121.784 5.27415C120.421 5.27415 119.331 5.77762 118.497 6.77228C117.675 7.77308 117.258 9.4247 117.258 11.721Z" fill="black"/>
<path d="M154.413 22.5774H147.758V6.08672H142.555V12.8078C142.555 15.5711 142.414 17.6094 142.126 18.8989C141.838 20.2004 141.151 21.1512 140.097 21.7633C139.031 22.3694 137.309 22.6665 134.943 22.6665C134.226 22.6665 133.393 22.5893 132.455 22.4348V18.0016H133.454C134.361 18.0016 134.992 17.7996 135.36 17.3955C135.728 16.9973 135.918 16.2545 135.918 15.1789V0.708683H154.413V22.5774Z" fill="black"/>
<path d="M156.538 0.708683H173.935V5.39859H163.045V8.88918H173.14V13.3643H163.045V17.6902H174.246V22.6665H156.538V0.708683Z" fill="black"/>
<path d="M183 4.3454C183 1.98002 184.918 0.0625 187.283 0.0625H232.967C235.332 0.0625 237.25 1.98002 237.25 4.3454V18.6217C237.25 20.9871 235.332 22.9046 232.967 22.9046H187.283C184.918 22.9046 183 20.9871 183 18.6217V4.3454Z" fill="#DB3727"/>
<path d="M190.138 4.57195H196.962C198.448 4.57195 199.56 4.92537 200.297 5.63221C201.04 6.33906 201.411 7.34495 201.411 8.6499C201.411 9.99109 201.007 11.0393 200.197 11.7945C199.394 12.5496 198.164 12.9272 196.509 12.9272H194.261V17.857H190.138V4.57195ZM194.261 10.2358H195.267C196.059 10.2358 196.615 10.0998 196.935 9.82797C197.255 9.55007 197.415 9.19665 197.415 8.76771C197.415 8.35085 197.276 7.99743 196.998 7.70744C196.72 7.41745 196.198 7.27246 195.43 7.27246H194.261V10.2358Z" fill="white"/>
<path d="M203.623 17.857V4.57195H210.464C211.733 4.57195 212.703 4.68069 213.373 4.89818C214.044 5.11567 214.585 5.52045 214.996 6.11251C215.406 6.69852 215.612 7.41443 215.612 8.26023C215.612 8.99728 215.455 9.63465 215.141 10.1723C214.826 10.704 214.394 11.1359 213.845 11.4682C213.494 11.6797 213.014 11.8549 212.404 11.9938C212.893 12.1569 213.25 12.3201 213.473 12.4832C213.624 12.5919 213.842 12.8245 214.126 13.181C214.416 13.5374 214.609 13.8123 214.706 14.0056L216.69 17.857H212.05L209.857 13.7972C209.579 13.2716 209.332 12.9302 209.114 12.7732C208.818 12.5678 208.483 12.465 208.108 12.465H207.746V17.857H203.623ZM207.746 9.95484H209.477C209.664 9.95484 210.026 9.89443 210.564 9.7736C210.836 9.71923 211.057 9.58028 211.226 9.35674C211.401 9.13321 211.488 8.87645 211.488 8.58646C211.488 8.15752 211.353 7.82827 211.081 7.59869C210.809 7.36912 210.298 7.25433 209.549 7.25433H207.746V9.95484Z" fill="white"/>
<path d="M217.497 11.2235C217.497 9.05467 218.101 7.3661 219.309 6.15782C220.517 4.94954 222.2 4.34539 224.357 4.34539C226.568 4.34539 228.272 4.94047 229.468 6.13063C230.664 7.31475 231.262 8.97614 231.262 11.1148C231.262 12.6674 230.999 13.9422 230.474 14.939C229.954 15.9298 229.199 16.7031 228.208 17.2589C227.223 17.8087 225.994 18.0836 224.52 18.0836C223.022 18.0836 221.78 17.8449 220.795 17.3677C219.817 16.8904 219.022 16.1352 218.412 15.1021C217.802 14.069 217.497 12.7762 217.497 11.2235ZM221.602 11.2417C221.602 12.5829 221.85 13.5465 222.345 14.1325C222.846 14.7185 223.526 15.0115 224.384 15.0115C225.266 15.0115 225.949 14.7245 226.432 14.1506C226.915 13.5767 227.157 12.5466 227.157 11.0604C227.157 9.80985 226.903 8.8976 226.396 8.32366C225.894 7.74369 225.212 7.4537 224.348 7.4537C223.52 7.4537 222.855 7.74671 222.354 8.33273C221.853 8.91874 221.602 9.88839 221.602 11.2417Z" fill="white"/>
</svg>
