<svg width="15" height="15" viewBox="0 0 15 15" fill="none" xmlns="http://www.w3.org/2000/svg">
<path d="M9.54892 0H4.78092C2.14466 0 0 3.27773 0 7.30655C0 11.3354 2.14466 14.6131 4.78092 14.6131H9.54892C12.1852 14.6131 14.33 11.3354 14.33 7.30655C14.33 3.27773 12.185 0 9.54892 0ZM4.78092 0.509783H7.79781C7.07868 0.943948 6.44485 1.63674 5.94492 2.5134L3.11053 3.85362L1.67753 2.64373C2.45681 1.33121 3.55947 0.509783 4.78092 0.509783ZM4.7991 6.48308L2.59497 7.81939L0.535272 6.57076C0.623804 5.26929 0.944458 4.07775 1.42926 3.10135L2.90712 4.34896C2.95402 4.38855 3.01265 4.40911 3.07161 4.40911C3.10849 4.40911 3.1457 4.40113 3.18054 4.38464L5.57363 3.2531C5.15968 4.19806 4.88661 5.29817 4.7991 6.48308ZM0.512162 7.15277L2.46276 8.33512C2.50337 8.35993 2.54909 8.37217 2.59497 8.37217C2.64068 8.37217 2.68656 8.35993 2.727 8.33529L4.7714 7.09584C4.77004 7.16602 4.76783 7.23569 4.76783 7.30638C4.76783 8.59528 4.98823 9.80653 5.37311 10.8589L3.82439 12.0632L1.11218 10.7158C1.10317 10.7114 1.09365 10.7087 1.08448 10.7053C0.719644 9.70457 0.509613 8.54396 0.509613 7.30621C0.509783 7.25506 0.511482 7.20408 0.512162 7.15277ZM4.78092 14.1033C3.39685 14.1033 2.16488 13.0494 1.38389 11.4203L3.74113 12.5913C3.77698 12.609 3.8159 12.6178 3.85447 12.6178C3.91004 12.6178 3.96526 12.5996 4.01097 12.5643L5.56989 11.352C6.10805 12.5842 6.88445 13.5519 7.79764 14.1033H4.78092ZM9.54892 14.1033C8.02568 14.1033 6.68716 12.827 5.93082 10.9121C5.92572 10.8715 5.91093 10.8317 5.88545 10.7964C5.50005 9.7756 5.27778 8.58169 5.27778 7.30655C5.27778 3.55879 7.19372 0.509783 9.54892 0.509783C11.9041 0.509783 13.8202 3.55879 13.8202 7.30655C13.82 11.0543 11.9041 14.1033 9.54892 14.1033Z" fill="#BBBBBB"/>
<path d="M9.54892 2.88538C8.19205 2.88538 7.12915 4.82748 7.12915 7.30655C7.12915 9.7858 8.19188 11.7279 9.54892 11.7279C10.906 11.7279 11.9687 9.7858 11.9687 7.30655C11.9687 4.82748 10.9058 2.88538 9.54892 2.88538ZM9.54892 11.2179C8.51355 11.2179 7.63893 9.42674 7.63893 7.30638C7.63893 5.1862 8.51355 3.39499 9.54892 3.39499C10.5843 3.39499 11.4589 5.1862 11.4589 7.30638C11.4589 9.42674 10.5841 11.2179 9.54892 11.2179Z" fill="#BBBBBB"/>
</svg>
