<svg width="14" height="10" viewBox="0 0 14 10" fill="none" xmlns="http://www.w3.org/2000/svg">
<path d="M0 3.63636H2.8V6.36364H0V3.63636ZM3.73333 6.36364H6.53333V3.63636H3.73333V6.36364ZM7.46667 6.36364H10.2667V3.63636H7.46667V6.36364ZM11.2 6.36364H14V3.63636H11.2V6.36364ZM11.2 0V2.72727H14V0H11.2ZM7.46667 2.72727H10.2667V0H7.46667V2.72727ZM3.73333 2.72727H6.53333V0H3.73333V2.72727ZM0 10H2.8V7.27273H0V10ZM3.73333 10H6.53333V7.27273H3.73333V10ZM7.46667 10H10.2667V7.27273H7.46667V10Z" fill="#BBBBBB"/>
</svg>
